<?xml version="1.0" standalone="no"?>
<!DOCTYPE svg PUBLIC "-//W3C//DTD SVG 20010904//EN"
 "http://www.w3.org/TR/2001/REC-SVG-20010904/DTD/svg10.dtd">
<svg version="1.0" xmlns="http://www.w3.org/2000/svg"
 width="512.000000pt" height="512.000000pt" viewBox="0 0 512.000000 512.000000"
 preserveAspectRatio="xMidYMid meet">
<metadata>
Created by potrace 1.14, written by Peter Selinger 2001-2017
</metadata>
<g transform="translate(0.000000,512.000000) scale(0.100000,-0.100000)"
fill="#000000" stroke="none">
<path d="M2480 5036 c0 -2 7 -7 16 -10 8 -3 12 -2 9 4 -6 10 -25 14 -25 6z"/>
<path d="M2627 5019 c7 -7 15 -10 18 -7 3 3 -2 9 -12 12 -14 6 -15 5 -6 -5z"/>
<path d="M2376 4993 c-6 -14 -5 -15 5 -6 7 7 10 15 7 18 -3 3 -9 -2 -12 -12z"/>
<path d="M2419 4993 c-13 -16 -12 -17 4 -4 9 7 17 15 17 17 0 8 -8 3 -21 -13z"/>
<path d="M2779 4983 c-1 -5 -1 -11 -1 -15 1 -3 -5 -9 -13 -12 -8 -3 -15 -2
-15 2 0 9 -502 8 -517 -1 -6 -4 -14 -3 -18 3 -4 6 -12 7 -18 3 -17 -11 -71
-10 -79 2 -5 6 -8 3 -8 -7 0 -9 -5 -20 -12 -24 -8 -5 -9 -2 -4 11 5 15 4 16
-9 5 -17 -14 -21 -35 -5 -25 6 3 10 -3 10 -15 0 -12 4 -18 11 -15 6 4 8 13 5
21 -3 7 -1 16 5 19 18 12 58 15 63 6 3 -5 -2 -8 -11 -7 -9 0 -18 -5 -21 -13
-3 -9 0 -11 8 -6 9 5 11 4 6 -3 -4 -7 -2 -12 5 -12 7 0 9 -3 5 -7 -4 -4 -41
-8 -82 -9 -61 -1 -78 -5 -97 -22 -13 -12 -27 -19 -30 -15 -4 3 -7 1 -7 -5 0
-7 -8 -12 -17 -12 -13 0 -14 -3 -5 -12 9 -9 19 -7 42 10 16 12 33 22 37 22 4
0 1 -5 -7 -10 -13 -9 -13 -11 0 -21 12 -8 10 -9 -9 -4 -14 4 -21 3 -18 -2 4
-6 -7 -9 -23 -8 -29 2 -48 -19 -29 -31 6 -4 6 -11 -1 -19 -7 -8 -9 -18 -6 -23
3 -5 -9 -8 -27 -7 -18 1 -40 -2 -49 -6 -10 -6 -19 -5 -23 1 -5 8 -11 7 -21 -1
-10 -8 -14 -8 -14 -1 0 6 -7 9 -15 6 -8 -4 -12 -11 -8 -17 4 -7 0 -8 -13 -4
-14 6 -13 2 5 -12 23 -18 23 -19 5 -24 -16 -4 -16 -5 -1 -6 9 0 17 -6 17 -12
0 -5 -4 -8 -9 -4 -5 3 -12 1 -16 -4 -3 -7 -15 -7 -29 -1 -13 5 -27 6 -30 3 -4
-4 -23 -7 -44 -8 -32 -1 -37 -4 -38 -25 0 -14 4 -33 9 -44 6 -13 6 -16 -2 -12
-6 4 -11 3 -11 -3 0 -6 -6 -8 -14 -5 -21 8 -26 -8 -10 -36 15 -25 15 -25 8 -1
-4 16 -2 22 6 19 6 -2 11 -7 11 -11 -1 -4 -1 -13 -1 -21 0 -10 -11 -13 -37
-11 -21 1 -42 -1 -48 -5 -5 -5 -14 -10 -20 -12 -5 -1 -9 -7 -7 -11 1 -5 -2 -6
-8 -2 -6 3 -8 11 -5 16 4 5 -4 9 -16 9 -19 0 -20 -2 -8 -17 10 -11 10 -14 2
-9 -8 4 -13 1 -13 -9 0 -10 5 -13 13 -9 9 6 9 5 0 -8 -7 -8 -10 -18 -6 -21 3
-4 -1 -7 -10 -7 -25 0 -32 4 -29 15 2 5 -5 1 -16 -8 -16 -14 -21 -15 -26 -5
-3 7 -4 3 -2 -9 2 -12 -1 -24 -8 -27 -7 -3 -8 -7 -1 -13 18 -15 15 -32 -5 -30
-14 1 -19 6 -15 17 4 11 2 11 -8 -2 -11 -14 -17 -15 -28 -5 -7 7 -10 8 -6 3 3
-5 -1 -15 -11 -23 -10 -9 -11 -11 -2 -7 12 6 13 5 3 -7 -7 -8 -10 -25 -6 -37
3 -13 1 -22 -6 -22 -7 0 -9 4 -6 10 4 6 -1 7 -11 3 -13 -5 -15 -3 -9 7 5 9 4
11 -4 6 -9 -6 -9 -11 1 -24 12 -14 10 -14 -9 -3 -13 6 -24 9 -24 6 -1 -3 -2
-8 -3 -12 -1 -5 -5 -14 -9 -20 -5 -7 -4 -13 1 -13 5 0 8 -10 7 -22 -1 -15 -8
-22 -19 -22 -9 1 -16 -5 -16 -13 0 -8 4 -12 9 -9 5 3 15 -2 22 -12 12 -15 12
-16 -2 -5 -9 7 -19 10 -22 6 -4 -3 0 -11 9 -18 14 -10 14 -12 0 -24 -9 -8 -16
-9 -16 -3 0 5 -11 10 -25 10 -15 0 -22 -5 -18 -11 4 -6 0 -8 -11 -4 -12 5 -15
3 -9 -6 4 -6 8 -26 8 -42 1 -26 -2 -30 -26 -30 -17 -1 -25 3 -21 10 11 17 11
35 0 29 -7 -5 -8 -2 -3 6 6 9 4 11 -5 5 -8 -5 -11 -4 -6 3 7 12 36 5 36 -9 0
-5 4 -9 8 -9 21 0 6 30 -20 39 -15 6 -28 9 -29 8 -6 -16 -5 -38 2 -43 5 -3 9
-10 9 -15 0 -6 -4 -7 -10 -4 -6 3 -7 -1 -4 -9 4 -10 1 -16 -7 -16 -10 0 -10
-3 -1 -12 7 -7 8 -17 1 -30 -7 -13 -6 -18 2 -18 7 0 9 -3 5 -7 -9 -9 -36 -13
-37 -5 0 4 -2 16 -4 27 -2 10 0 24 5 30 6 8 5 12 -4 12 -14 0 -16 -53 -2 -75
9 -14 1 -15 -23 -3 -14 8 -17 6 -16 -7 2 -27 14 -42 31 -35 12 5 12 7 -3 20
-16 13 -16 13 5 3 12 -6 21 -7 20 -3 -2 4 2 9 7 11 6 1 10 -2 10 -7 0 -5 3
-12 7 -16 4 -4 4 -13 1 -21 -4 -12 -8 -11 -20 3 -13 15 -14 16 -10 1 8 -24 -2
-29 -27 -13 -23 15 -24 14 -28 -42 -1 -7 -5 -13 -10 -13 -4 0 -8 -4 -8 -10 0
-5 8 -6 18 -3 13 5 15 4 6 -8 -6 -8 -10 -30 -9 -51 1 -33 -1 -36 -23 -32 -14
3 -21 1 -18 -5 4 -6 -3 -8 -17 -5 -21 3 -23 1 -19 -28 4 -24 2 -29 -9 -24 -8
4 -5 0 5 -8 18 -14 15 -21 -7 -17 -5 1 -5 -4 0 -11 4 -7 8 -33 9 -57 1 -39 0
-41 -11 -21 -7 13 -15 18 -18 13 -4 -6 2 -22 13 -36 11 -14 20 -29 20 -33 0
-4 -14 11 -32 34 -29 38 -48 46 -48 21 0 -6 5 -7 10 -4 9 6 12 -1 9 -22 0 -4
8 -11 18 -15 16 -7 16 -8 -2 -5 -11 2 -19 9 -17 15 1 7 -3 12 -9 12 -6 0 -9
-7 -6 -15 4 -8 2 -17 -4 -21 -7 -4 -6 -10 1 -19 6 -8 7 -16 2 -19 -9 -5 -6
-75 3 -84 2 -3 0 -13 -6 -23 -7 -14 -6 -19 3 -19 8 0 9 -3 3 -8 -6 -4 -10
-101 -9 -257 0 -163 -3 -255 -10 -264 -9 -11 -8 -13 2 -7 11 6 13 -2 11 -41
-1 -27 1 -54 5 -61 4 -7 2 -12 -4 -12 -6 0 -8 -5 -3 -12 10 -17 10 -39 0 -60
-6 -14 -3 -18 10 -18 13 0 14 -3 6 -8 -7 -4 -11 -18 -8 -30 2 -13 -1 -22 -8
-22 -13 -1 32 -29 47 -30 5 0 3 7 -4 15 -9 10 -9 15 -1 15 6 0 11 -5 11 -10 0
-6 5 -9 12 -8 7 2 12 -20 14 -65 2 -43 -1 -65 -7 -61 -6 3 -5 -3 3 -15 7 -12
18 -19 24 -17 8 3 7 -5 -2 -24 -16 -31 -9 -64 12 -56 7 3 16 1 19 -3 7 -12
-24 -23 -38 -14 -7 4 -7 1 1 -9 10 -13 10 -17 0 -21 -7 -3 6 -3 29 -2 39 3 42
2 40 -23 -3 -32 21 -59 48 -55 l20 3 -20 -9 c-15 -6 -23 -5 -33 7 -10 14 -12
13 -10 -9 2 -26 27 -35 40 -15 5 8 8 7 8 -1 0 -7 10 -13 23 -14 12 0 16 -3 9
-6 -10 -4 -10 -8 -1 -19 9 -11 8 -14 -7 -15 -18 0 -18 -1 1 -9 11 -5 14 -9 6
-9 -10 -1 -11 -4 -2 -14 8 -10 7 -17 -1 -25 -8 -8 -5 -11 11 -9 12 1 20 6 17
12 -2 6 4 11 14 11 17 0 17 -2 1 -22 -9 -12 -19 -18 -22 -12 -8 12 -16 0 -15
-22 1 -17 36 -27 36 -10 0 6 5 8 10 5 6 -4 8 -11 5 -16 -4 -5 -2 -9 4 -9 5 0
12 6 14 13 3 6 6 0 7 -15 2 -16 3 -34 4 -40 1 -7 -3 -17 -9 -21 -5 -4 11 -6
37 -4 55 4 61 1 48 -24 -7 -11 -7 -20 0 -24 5 -3 7 -12 4 -19 -3 -8 7 -23 22
-35 15 -11 23 -21 19 -21 -5 0 0 -9 10 -20 10 -11 25 -20 33 -20 9 0 12 -3 9
-7 -4 -3 -1 -13 6 -21 10 -13 9 -15 -3 -10 -11 4 -15 -2 -16 -21 -1 -14 1 -20
3 -13 3 6 10 9 16 5 22 -13 35 -11 32 6 -1 9 2 19 7 22 6 4 6 9 -1 13 -6 4
-11 2 -11 -4 0 -6 -5 -8 -11 -4 -8 4 -7 9 2 16 11 7 10 8 -4 4 -10 -3 -15 -2
-12 4 3 5 16 8 28 6 15 -2 22 -10 21 -25 -1 -11 4 -21 10 -21 6 0 4 -4 -4 -10
-22 -14 -7 -21 43 -23 29 -1 43 -5 39 -12 -9 -14 -9 -29 1 -36 5 -3 1 -9 -8
-12 -10 -5 -14 -3 -9 5 5 7 3 8 -6 3 -8 -5 -11 -4 -7 2 4 6 -1 10 -11 9 -10 0
-16 6 -16 17 1 9 -2 17 -6 17 -12 0 -19 -39 -9 -46 5 -3 7 -9 5 -13 -3 -4 1
-8 9 -8 8 0 12 4 9 9 -6 10 10 11 20 1 7 -8 11 -9 37 -12 5 0 7 -7 3 -13 -4
-7 1 -6 12 3 20 16 54 15 54 -3 0 -7 5 -7 13 1 11 8 18 6 33 -12 l19 -22 -22
18 c-15 13 -23 15 -28 7 -7 -11 0 -25 13 -25 4 0 17 -10 30 -23 12 -12 28 -20
34 -16 7 4 8 3 4 -5 -4 -6 -13 -8 -19 -4 -8 5 -8 2 0 -9 7 -8 10 -18 6 -22 -4
-4 -1 -11 7 -17 11 -7 7 -8 -14 -5 -16 3 -26 2 -22 -1 4 -4 12 -8 19 -9 7 -1
25 -5 40 -8 24 -4 28 -2 23 12 -6 16 -5 16 7 0 8 -10 18 -14 23 -10 4 4 3 0
-4 -10 -9 -11 -10 -18 -2 -23 6 -3 8 -11 4 -16 -4 -6 -11 -6 -19 1 -10 8 -14
8 -17 -2 -3 -9 -6 -9 -12 0 -4 7 -2 12 4 12 6 0 8 5 4 11 -4 8 -9 7 -16 -2 -8
-11 -9 -11 -5 2 3 9 -1 16 -9 16 -12 0 -11 -5 2 -25 15 -22 15 -24 1 -19 -11
4 -14 2 -10 -9 4 -11 9 -12 19 -3 11 9 14 8 14 -2 0 -12 2 -12 9 0 6 9 11 10
15 2 4 -6 16 -11 27 -11 10 0 19 -5 19 -11 0 -8 5 -7 16 1 12 11 18 10 30 -3
8 -9 9 -12 2 -7 -20 16 -32 11 -17 -7 8 -9 14 -26 14 -37 0 -15 5 -20 19 -18
14 3 17 -1 13 -12 -4 -10 -1 -16 8 -16 19 0 28 17 13 23 -7 2 -1 4 14 3 l28
-1 -23 -17 c-12 -10 -27 -18 -32 -18 -13 0 -18 -40 -5 -40 5 0 11 8 13 18 4
16 5 16 6 -1 0 -10 5 -16 11 -12 5 3 7 12 4 19 -3 8 -1 17 4 20 5 3 8 -6 6
-19 -1 -14 2 -25 8 -25 6 0 8 -17 6 -40 -4 -45 1 -50 20 -20 7 11 8 20 3 20
-5 0 -9 9 -8 20 1 11 5 20 10 20 5 0 6 -7 3 -16 -3 -9 -2 -12 4 -9 6 4 9 1 8
-6 -2 -6 4 -14 12 -16 9 -3 11 -1 5 4 -16 13 -18 46 -3 40 7 -2 12 -10 10 -17
-2 -7 2 -16 9 -20 18 -12 2 -28 -26 -25 -14 2 -23 -1 -19 -7 3 -5 12 -7 19 -4
8 3 19 -2 26 -10 10 -13 14 -12 30 2 18 16 19 16 19 -2 1 -19 1 -19 15 0 8 11
15 18 16 15 6 -25 4 -57 -3 -53 -4 3 -8 0 -8 -5 0 -6 5 -11 11 -11 5 0 7 -5 4
-10 -3 -6 0 -10 7 -11 7 0 4 -4 -7 -9 -18 -8 -18 -9 -2 -9 10 -1 20 5 23 13 3
8 15 11 30 8 21 -4 28 -13 26 -34 -1 -3 5 -12 13 -18 13 -11 15 -9 13 11 -2
13 -7 27 -13 31 -5 4 0 8 13 8 13 0 21 -4 17 -9 -3 -5 4 -16 15 -24 20 -14 20
-14 -2 -33 -12 -10 -18 -13 -14 -7 4 7 2 13 -3 13 -6 0 -11 -5 -11 -12 0 -6
-6 -4 -13 7 -11 14 -16 15 -22 5 -5 -9 -4 -11 3 -6 7 4 12 3 12 -2 0 -5 -11
-9 -25 -9 -15 0 -25 5 -25 13 0 8 6 13 12 11 7 -1 14 9 15 23 2 24 2 24 -5 2
-4 -13 -11 -22 -17 -20 -5 2 -11 -7 -13 -20 -3 -19 -6 -21 -18 -11 -7 6 -11
16 -7 22 3 6 1 7 -5 3 -6 -4 -9 -12 -6 -19 3 -8 -9 -11 -40 -10 -34 1 -44 -1
-40 -12 3 -8 12 -11 20 -8 20 7 18 -21 -3 -39 -19 -16 -53 -20 -53 -6 0 4 -5
8 -11 8 -5 0 -7 -5 -4 -10 3 -6 2 -10 -4 -10 -20 0 -20 17 0 38 23 25 30 27
48 10 11 -11 11 -9 0 9 -12 19 -15 20 -35 6 -21 -14 -39 -40 -36 -55 1 -3 -31
-6 -71 -6 -39 0 -73 -3 -74 -7 -1 -4 -7 -12 -15 -16 -7 -5 -8 -9 -3 -9 6 0 12
-11 13 -24 1 -17 -5 -25 -21 -30 -31 -8 -35 -8 -40 7 -2 6 -3 4 -2 -5 3 -20
-11 -24 -18 -5 -4 9 -7 9 -18 -1 -8 -7 -9 -13 -4 -12 22 5 27 -1 14 -17 -8 -9
-9 -14 -3 -10 7 4 15 0 18 -9 9 -24 7 -27 -9 -14 -13 11 -14 10 -9 -5 6 -15 4
-16 -15 -5 -19 10 -20 14 -9 28 12 15 11 16 -4 3 -19 -14 -11 -45 14 -53 25
-9 -4 -28 -37 -23 -32 4 -33 3 -28 -26 2 -17 0 -29 -7 -29 -7 0 -6 -5 2 -14
14 -14 42 -10 32 5 -3 5 -10 7 -15 4 -5 -3 -6 2 -2 11 6 16 7 15 19 -1 15 -20
3 -45 -22 -45 -7 0 -16 -4 -19 -10 -3 -5 0 -7 8 -4 8 3 18 0 22 -6 3 -6 2 -9
-3 -8 -10 3 -13 -4 -11 -19 4 -27 3 -39 -5 -44 -5 -4 6 -6 23 -5 17 0 31 6 31
13 0 6 -9 10 -19 8 -14 -3 -19 2 -18 15 1 21 23 34 38 24 5 -3 9 0 9 6 0 7 5
10 11 8 13 -4 11 -24 -2 -21 -12 4 -11 -4 2 -29 8 -15 8 -19 0 -14 -6 4 -11 2
-11 -4 0 -6 6 -13 14 -16 11 -4 13 -12 6 -29 -5 -13 -6 -26 -2 -31 4 -4 1 -4
-6 0 -7 5 -11 14 -8 22 8 22 -4 42 -22 39 -9 -2 -21 -4 -26 -4 -4 -1 -6 -9 -3
-20 2 -10 1 -25 -4 -33 -6 -10 -2 -14 16 -14 19 0 22 3 13 13 -19 23 -4 22 23
-1 27 -23 44 -56 30 -56 -5 0 -8 -8 -7 -17 3 -18 9 -19 104 -22 29 -1 41 -5
36 -12 -4 -8 -1 -8 13 -1 17 10 20 8 20 -18 0 -16 -4 -27 -9 -24 -4 3 -5 -2
-1 -12 5 -15 7 -15 15 0 12 22 29 20 22 -1 -5 -14 -4 -15 4 -4 8 11 10 11 15
0 4 -10 6 -9 6 3 1 11 -9 20 -24 24 -25 6 -36 26 -12 23 25 -3 38 1 32 11 -3
6 -1 10 5 10 6 0 8 -11 6 -25 -3 -14 -1 -25 4 -25 5 0 7 -7 4 -15 -4 -11 1
-15 17 -15 13 -1 89 -1 167 -2 79 0 139 -4 132 -8 -8 -5 -5 -14 12 -29 l23
-22 -26 4 c-17 3 -26 1 -26 -8 0 -7 12 -12 26 -12 27 0 54 20 43 32 -4 5 -1 5
6 1 9 -6 10 -11 2 -20 -8 -10 4 -14 57 -16 38 -1 77 -2 88 -2 10 1 26 -4 34
-11 12 -9 13 -9 7 1 -5 9 4 12 33 12 26 0 41 -5 41 -12 0 -9 3 -10 8 -2 4 6
45 11 102 11 80 0 98 -3 111 -19 17 -19 30 -24 28 -10 -5 27 6 30 124 30 74 0
122 4 122 10 0 6 4 14 8 19 5 4 7 1 5 -7 -2 -10 6 -16 26 -18 33 -4 44 9 40
46 l-3 27 157 3 c230 5 250 6 259 15 4 5 4 8 -2 7 -21 -5 -25 1 -15 19 7 14 7
22 -2 27 -6 4 -8 3 -4 -4 3 -6 1 -14 -5 -17 -5 -4 -8 -13 -6 -19 3 -7 -1 -13
-8 -13 -7 0 -11 6 -9 12 3 6 -2 12 -11 12 -9 0 -14 -6 -11 -12 2 -6 -1 -12 -8
-12 -7 0 -13 6 -13 14 0 12 11 17 30 14 16 -2 6 17 -14 25 -17 8 -9 10 34 10
54 0 55 0 50 -25 -2 -14 -1 -23 2 -19 4 3 8 14 9 25 2 14 13 19 50 21 36 2 46
7 42 17 -3 9 0 12 9 8 8 -3 12 -9 9 -14 -3 -5 0 -9 5 -9 6 0 11 9 11 21 0 13
-4 18 -12 13 -9 -6 -9 -3 0 9 8 9 11 21 7 27 -3 5 2 10 13 10 11 0 22 7 26 15
3 8 1 15 -4 15 -12 0 -9 22 5 33 6 5 4 7 -5 4 -8 -2 -14 -10 -13 -16 2 -6 -1
-11 -6 -11 -6 0 -9 9 -8 19 1 15 7 18 30 15 23 -3 27 -1 18 10 -6 7 -7 17 -3
21 4 5 -1 5 -10 2 -9 -3 -21 0 -27 7 -11 14 -5 26 13 26 6 0 4 -5 -4 -10 -14
-9 -12 -11 20 -14 8 0 15 -7 15 -15 0 -8 5 -16 11 -18 7 -2 12 7 12 21 -1 14
-4 24 -7 21 -4 -2 -13 1 -21 7 -12 8 -12 9 2 4 10 -3 20 -1 23 4 4 6 2 10 -4
10 -5 0 -13 9 -16 20 -4 11 -11 17 -17 14 -7 -5 -8 -2 -3 6 6 10 13 7 27 -11
17 -21 18 -22 16 -4 -2 10 -10 27 -18 36 -14 15 -16 15 -27 1 -7 -9 -13 -11
-13 -5 0 6 7 16 15 23 12 10 16 9 21 -4 3 -9 10 -16 15 -16 13 0 6 23 -11 37
-12 9 -19 8 -36 -8 -16 -15 -21 -16 -21 -5 0 8 4 13 8 11 3 -3 13 3 20 12 12
14 11 15 -11 9 -19 -6 -21 -5 -10 3 11 8 12 11 2 11 -9 0 -11 7 -7 20 4 13 2
20 -7 20 -10 0 -9 3 2 10 9 6 10 10 3 10 -6 0 -10 9 -8 20 2 13 -2 20 -11 20
-8 0 -14 5 -14 10 0 6 -16 10 -35 10 -19 0 -35 5 -35 11 0 6 7 9 15 5 12 -4
13 -2 7 12 -5 9 -8 25 -7 35 3 14 -4 17 -36 17 -30 0 -38 3 -33 12 6 10 4 10
-8 0 -18 -14 -103 -13 -127 2 -11 7 -13 5 -8 -7 11 -28 -1 -19 -18 13 -14 27
-14 29 2 23 15 -6 16 -4 6 8 -10 13 -10 16 2 16 7 0 13 -5 12 -11 -1 -6 4 -10
11 -8 8 1 11 -2 6 -9 -5 -8 -3 -9 6 -4 9 6 11 4 5 -5 -6 -9 -4 -11 5 -5 8 5
11 4 6 -3 -7 -12 19 -10 31 2 4 4 3 6 -2 4 -6 -2 -10 2 -10 7 0 6 2 9 5 8 3
-1 7 8 7 19 2 19 1 19 -11 3 -9 -13 -15 -15 -20 -7 -4 7 -1 12 6 12 10 0 9 3
-2 10 -8 5 -19 5 -25 1 -5 -5 -20 -7 -32 -5 -12 2 -25 -1 -28 -7 -4 -6 -11 -6
-18 -1 -18 14 -53 20 -67 12 -6 -4 -29 -4 -51 0 -24 5 -39 3 -39 -3 0 -5 -5
-6 -12 -1 -7 5 -32 9 -55 9 -24 -1 -43 3 -43 7 0 4 -5 8 -11 8 -5 0 -7 -6 -3
-12 5 -9 2 -9 -9 1 -22 18 -22 20 8 16 14 -1 28 2 31 6 3 5 10 9 16 9 7 0 7
-4 0 -13 -8 -10 -6 -13 11 -14 15 -2 18 0 8 6 -11 7 -11 9 0 14 12 5 12 6 0 6
-11 1 -11 4 -1 16 11 13 10 14 -5 9 -13 -5 -16 -4 -11 5 4 6 4 11 -1 10 -22
-4 -34 2 -27 14 4 6 3 9 -1 4 -13 -11 -13 -47 -1 -40 6 3 5 0 -2 -8 -9 -10
-15 -10 -24 -1 -9 9 -9 12 1 12 10 0 11 3 3 13 -6 7 -9 25 -7 39 3 17 0 28
-11 32 -8 3 -12 10 -9 16 4 6 -2 7 -17 2 -29 -11 -60 -4 -55 11 3 7 10 11 17
9 11 -3 11 0 0 12 -10 13 -10 16 1 16 11 0 11 2 -1 10 -26 16 -3 21 114 23
100 1 116 4 111 17 -4 13 -4 13 7 0 13 -16 63 -25 53 -10 -3 5 -1 12 5 15 6 4
9 3 8 -2 -2 -4 2 -9 7 -11 6 -1 10 4 10 11 0 6 5 16 10 20 6 4 -5 6 -23 3 -19
-2 -31 -2 -27 2 7 7 12 8 43 11 14 1 15 3 2 11 -10 6 -6 9 18 8 17 -1 39 5 49
13 11 10 14 10 9 1 -5 -9 1 -12 26 -10 18 1 41 5 51 10 9 5 17 5 17 0 0 -11
40 -10 58 1 6 5 12 13 12 18 0 6 -6 7 -12 3 -8 -5 -8 -1 1 10 13 15 13 19 0
27 -9 6 5 9 44 9 31 0 59 -1 60 -2 2 -2 12 4 22 12 11 8 16 10 13 5 -4 -6 2
-12 13 -12 17 -2 18 1 8 13 -10 12 -9 13 3 9 16 -6 18 20 3 44 -6 11 -4 13 8
8 10 -3 17 -3 17 2 0 5 12 7 26 5 16 -1 27 3 31 14 4 9 11 20 17 25 6 4 -2 5
-18 3 -27 -5 -27 -4 -12 13 9 10 13 21 9 25 -4 4 0 4 10 0 9 -3 14 -11 10 -18
-3 -6 -1 -6 8 2 17 16 53 16 43 0 -5 -10 -4 -10 6 -1 7 7 13 30 13 52 0 39 1
40 34 37 19 -1 36 1 39 6 3 5 9 6 14 3 5 -3 11 -1 15 5 9 14 25 12 21 -3 -1
-6 -1 -9 1 -4 3 4 9 5 13 2 5 -3 11 -1 15 5 3 5 1 10 -4 10 -6 0 -11 5 -11 11
0 6 6 9 13 6 9 -3 12 3 9 22 -3 25 -1 26 35 26 29 0 39 4 41 19 3 13 0 16 -10
10 -10 -6 -10 -5 1 9 11 14 11 17 0 17 -9 0 -10 3 -4 8 6 4 19 18 30 31 15 19
16 23 4 19 -9 -4 -16 -1 -16 7 0 7 6 11 14 8 9 -4 11 0 7 13 -5 15 -4 16 4 4
6 -8 8 -18 6 -22 -3 -4 0 -8 7 -8 6 0 1 -8 -11 -18 -18 -15 -20 -19 -7 -19 10
0 17 5 17 11 0 7 3 7 8 1 10 -14 32 -17 32 -5 0 6 -6 10 -12 10 -9 0 -10 3 -2
8 15 10 14 41 -2 35 -6 -2 -15 1 -19 7 -4 6 -1 11 6 9 33 -4 37 2 34 41 -2 22
1 40 7 40 5 0 6 -10 3 -21 -5 -16 -4 -19 5 -14 8 5 11 4 7 -2 -4 -6 0 -14 9
-17 12 -5 15 -2 9 11 -12 32 -10 38 13 36 12 -2 22 1 23 5 1 4 2 23 3 42 2 24
7 34 17 32 17 -4 30 -23 23 -34 -7 -11 8 -10 26 2 8 5 10 10 4 10 -7 0 -14 7
-18 15 -3 8 -2 14 2 14 18 -3 35 2 29 8 -4 3 -1 13 6 21 9 13 9 14 0 8 -8 -4
-13 -1 -13 8 0 20 14 20 30 0 8 -8 23 -20 34 -25 15 -7 13 -3 -7 13 -21 19
-24 27 -15 36 7 7 18 12 26 12 7 0 11 4 7 9 -3 5 -1 12 4 16 14 8 2 35 -14 35
-8 0 -16 4 -19 9 -4 5 3 7 14 4 15 -4 20 0 20 16 0 11 3 21 8 22 4 0 15 2 25
4 14 3 16 -1 11 -17 -6 -19 -5 -19 13 -1 13 13 15 19 6 21 -7 2 -11 8 -7 13 3
5 11 6 17 3 7 -4 9 -3 4 1 -4 5 -18 10 -30 12 -17 2 -19 1 -7 -7 8 -5 13 -10
10 -11 -3 0 -16 -2 -29 -5 -21 -4 -22 -3 -10 13 9 11 10 14 2 9 -7 -4 -13 -2
-13 3 0 6 18 11 40 11 l40 0 2 83 c1 45 2 90 2 99 0 9 3 15 8 12 4 -3 8 -11 8
-17 0 -7 9 -13 20 -14 11 -1 18 2 15 7 -3 6 1 7 9 4 24 -9 19 11 -6 30 l-23
17 23 -11 c18 -9 22 -8 22 5 0 9 -4 14 -9 10 -5 -3 -13 0 -17 6 -4 7 -3 9 4 5
17 -11 20 4 23 117 2 59 7 107 12 107 5 0 4 7 -3 16 -8 8 -9 14 -4 13 20 -3
28 2 15 10 -8 5 -16 17 -17 25 -1 9 2 13 8 10 5 -3 7 -8 4 -11 -8 -9 37 -41
50 -36 15 5 15 53 0 53 -7 0 -7 3 -1 8 16 12 17 26 15 262 -1 124 -2 244 -1
268 1 32 -2 41 -11 36 -10 -6 -10 -4 -2 7 16 21 15 59 -1 53 -7 -3 -16 -1 -19
4 -3 5 2 9 11 8 9 0 18 4 20 10 5 16 -37 10 -48 -7 -7 -10 -8 -7 -3 11 6 22 5
23 -10 11 -15 -12 -16 -2 -16 123 0 89 -4 135 -10 131 -5 -3 -10 -1 -10 4 0 6
4 11 9 11 5 0 9 11 9 25 0 20 -3 23 -14 14 -8 -6 -12 -15 -9 -19 3 -5 1 -11
-4 -14 -10 -7 -9 20 2 30 15 15 6 26 -10 13 -15 -12 -16 -12 -10 6 7 19 6 19
-7 3 -7 -10 -16 -18 -19 -18 -3 0 -5 35 -6 77 -1 81 -7 93 -47 88 -24 -2 -52
19 -37 28 5 3 7 26 5 51 -3 31 -9 46 -20 49 -15 4 -15 5 1 6 20 1 23 31 3 31
-8 0 -16 5 -18 12 -3 7 -7 5 -11 -6 -4 -10 -3 -15 3 -11 6 4 7 -1 3 -11 -5
-14 -8 -13 -19 7 -8 15 -13 18 -14 9 0 -8 -7 -2 -15 14 -9 16 -13 31 -10 34 3
3 5 1 5 -5 0 -6 7 -14 16 -17 14 -5 15 -4 5 8 -6 8 -10 20 -9 27 2 9 -6 14
-19 14 -12 0 -25 4 -29 8 -12 11 -26 8 -18 -5 4 -7 3 -8 -4 -4 -6 4 -12 21
-12 39 -1 70 -4 96 -11 92 -4 -3 -9 2 -12 10 -4 10 -1 12 11 9 15 -5 15 -4 1
5 -19 12 -54 8 -53 -7 1 -7 2 -19 3 -28 0 -8 6 -12 11 -9 7 4 6 14 -1 28 -10
21 -9 21 5 3 9 -10 13 -23 10 -28 -3 -5 0 -16 7 -24 10 -12 6 -11 -17 2 -22
12 -30 24 -29 43 1 14 -1 30 -4 36 -2 5 -5 23 -5 40 -1 20 -6 29 -15 27 -7 -1
-20 3 -29 10 -9 8 -13 8 -9 2 4 -7 -1 -15 -10 -18 -10 -4 -14 -4 -10 0 4 4 -1
13 -11 21 -9 8 -12 12 -6 9 7 -3 15 1 18 10 4 9 2 13 -5 8 -8 -4 -9 1 -4 16 6
19 4 22 -9 17 -10 -4 -15 -3 -11 3 9 15 -5 12 -21 -5 -9 -8 -20 -15 -27 -15
-6 0 -2 6 8 14 18 13 17 14 -9 14 -16 0 -32 6 -37 13 -6 10 -9 11 -9 2 0 -16
-26 -17 -35 -3 -4 6 -1 18 7 27 9 12 9 15 1 9 -9 -5 -13 0 -13 13 0 18 -6 21
-40 21 -42 0 -43 2 -40 57 1 27 -1 31 -19 26 -13 -3 -21 -1 -21 6 0 7 5 9 12
5 7 -5 8 -3 3 5 -5 9 -13 6 -29 -11 l-21 -23 -3 43 c-2 23 -6 43 -10 43 -51 9
-61 7 -56 -9 2 -9 -1 -7 -7 6 -12 22 -37 26 -52 7 -5 -6 -6 -1 -2 10 4 11 8
26 8 33 1 17 7 15 24 -5 13 -16 13 -16 4 4 -8 16 -8 22 1 25 7 3 5 7 -6 11
-10 4 -15 3 -11 -3 8 -13 -8 -13 -22 1 -17 17 -26 -7 -12 -32 7 -15 8 -19 0
-15 -7 5 -9 1 -5 -8 4 -9 1 -16 -6 -16 -8 0 -10 9 -5 27 l6 27 -20 -25 c-16
-19 -20 -20 -14 -5 5 15 3 17 -8 11 -8 -5 -11 -5 -6 1 5 5 14 9 20 9 7 0 13 8
15 17 3 14 -4 17 -32 16 -19 -1 -33 -5 -30 -10 11 -17 -8 -7 -31 17 -16 19
-25 22 -31 14 -5 -8 -3 -9 6 -4 8 5 11 3 8 -6 -3 -8 -13 -14 -24 -14 -18 0
-24 15 -25 65 0 13 -17 16 -95 15 -52 0 -94 3 -94 8 0 4 -11 5 -25 1 -16 -4
-25 -2 -25 6 0 6 5 8 12 4 6 -4 4 3 -5 15 -8 13 -13 29 -11 35 3 9 -16 12 -68
13 -113 2 -118 2 -118 13 0 5 8 7 18 4 14 -5 15 -4 2 5 -11 8 -18 7 -25 -2
-15 -18 -45 -20 -45 -2 0 8 -3 14 -7 14 -37 -6 -44 15 -10 31 20 10 21 10 4
-3 -12 -10 -14 -17 -8 -22 6 -3 14 1 17 9 3 9 11 13 18 9 6 -4 5 0 -2 9 -8 10
-25 15 -46 14 -39 -3 -80 10 -71 24 3 5 4 10 1 10 -3 0 -7 -3 -7 -7z m63 -40
c-6 -3 -9 -10 -5 -16 5 -8 2 -8 -9 0 -8 7 -19 9 -23 5 -5 -4 -6 -2 -2 3 3 6
16 11 29 12 13 0 17 -1 10 -4z m27 -59 c2 -2 -9 -2 -25 0 -16 2 -28 10 -30 19
-2 16 9 12 55 -19z m214 -25 c-9 -9 -8 -18 4 -38 14 -25 14 -25 -2 -6 -9 11
-24 19 -33 18 -10 -1 -11 0 -4 3 6 3 9 11 6 16 -4 6 -2 8 4 4 6 -3 13 -2 17 4
3 5 9 10 13 10 3 0 1 -5 -5 -11z m-76 -14 c0 -8 -4 -12 -9 -9 -5 3 -6 10 -3
15 9 13 12 11 12 -6z m109 -9 c8 -8 11 -17 6 -20 -4 -2 -13 4 -20 15 -14 22
-7 25 14 5z m-46 -26 c0 -5 -2 -10 -4 -10 -3 0 -8 5 -11 10 -3 6 -1 10 4 10 6
0 11 -4 11 -10z m190 -33 c0 -5 -9 -7 -20 -4 -11 3 -20 1 -20 -3 0 -13 24 -18
42 -9 10 6 19 5 23 -1 3 -5 12 -10 18 -10 7 1 2 9 -10 19 -21 18 -21 18 18 17
36 -1 41 -4 38 -22 0 -4 5 -11 13 -15 10 -7 10 -9 0 -9 -7 0 -11 -4 -8 -8 3
-5 -1 -9 -9 -9 -11 0 -12 4 -4 14 7 8 8 13 1 13 -5 0 -15 -7 -22 -15 -10 -12
-16 -12 -34 -2 -19 10 -32 14 -73 19 -8 1 -9 7 -3 18 9 16 50 22 50 7z m-25
-55 c-3 -3 -11 0 -18 7 -9 10 -8 11 6 5 10 -3 15 -9 12 -12z m-1455 -22 c0 -5
-5 -10 -11 -10 -5 0 -7 5 -4 10 3 6 8 10 11 10 2 0 4 -4 4 -10z m27 -5 c0 -8
-4 -12 -9 -9 -5 3 -6 10 -3 15 9 13 12 11 12 -6z m1758 5 c3 -5 1 -10 -4 -10
-6 0 -11 5 -11 10 0 6 2 10 4 10 3 0 8 -4 11 -10z m-92 -24 c-10 -13 -20 -22
-22 -20 -4 4 29 44 36 44 2 0 -4 -11 -14 -24z m-1791 -53 c-6 -3 -10 -9 -6
-14 3 -5 0 -8 -7 -7 -6 2 -14 -3 -16 -10 -3 -7 -1 -11 4 -10 4 2 8 -1 8 -7 0
-14 -33 -17 -42 -2 -4 6 -8 21 -9 32 0 17 6 20 40 21 23 1 35 -1 28 -3z m1948
-43 c0 -5 -5 -10 -11 -10 -5 0 -7 5 -4 10 3 6 8 10 11 10 2 0 4 -4 4 -10z
m360 -220 c0 -5 -4 -10 -10 -10 -5 0 -10 5 -10 10 0 6 5 10 10 10 6 0 10 -4
10 -10z m58 -94 c14 5 14 4 2 -4 -16 -12 -40 2 -40 22 0 6 5 3 11 -6 5 -10 17
-15 27 -12z m252 -318 c12 4 13 2 2 -9 -11 -12 -15 -11 -26 3 -7 10 -16 15
-20 11 -4 -4 -4 1 0 11 7 18 8 17 18 -1 6 -11 18 -18 26 -15z m-30 -22 c0 -3
-4 -8 -10 -11 -5 -3 -10 -1 -10 4 0 6 5 11 10 11 6 0 10 -2 10 -4z m-3325
-266 c3 -5 1 -10 -4 -10 -6 0 -11 5 -11 10 0 6 2 10 4 10 3 0 8 -4 11 -10z
m3492 -22 c-3 -8 -6 -5 -6 6 -1 11 2 17 5 13 3 -3 4 -12 1 -19z m-9 -33 c-3
-3 -9 2 -12 12 -6 14 -5 15 5 6 7 -7 10 -15 7 -18z m-3576 -167 c-7 -7 -16 -7
-28 0 -14 8 -13 10 10 10 18 0 24 -4 18 -10z m3673 -128 c3 -5 1 -10 -4 -10
-6 0 -11 5 -11 10 0 6 2 10 4 10 3 0 8 -4 11 -10z m25 -24 c0 -3 -4 -8 -10
-11 -5 -3 -10 -1 -10 4 0 6 5 11 10 11 6 0 10 -2 10 -4z m-6 -615 c-5 -6 -34
20 -34 30 0 5 8 1 18 -8 10 -10 17 -20 16 -22z m-3714 -156 c0 -8 -2 -15 -4
-15 -2 0 -6 7 -10 15 -3 8 -1 15 4 15 6 0 10 -7 10 -15z m34 -11 c3 -8 2 -12
-4 -9 -6 3 -10 10 -10 16 0 14 7 11 14 -7z m3585 -168 c-3 -3 -11 5 -18 17
-13 21 -12 21 5 5 10 -10 16 -20 13 -22z m-3546 9 c-3 -9 -8 -14 -10 -11 -3 3
-2 9 2 15 9 16 15 13 8 -4z m40 -42 c-4 -10 -2 -14 4 -10 6 4 9 -10 7 -38 -1
-27 3 -45 9 -45 20 0 -1 -12 -27 -14 -28 -3 -35 8 -11 18 19 7 8 37 -13 34
-26 -5 -25 20 2 47 29 29 38 32 29 8z m47 -163 c0 -5 -2 -10 -4 -10 -3 0 -8 5
-11 10 -3 6 -1 10 4 10 6 0 11 -4 11 -10z m50 4 c0 -8 -19 -13 -24 -6 -3 5 1
9 9 9 8 0 15 -2 15 -3z m3246 -107 c1 -12 3 -26 3 -30 1 -5 7 -5 14 -1 6 4 4
-2 -6 -14 -17 -19 -54 -21 -42 -1 3 4 12 6 20 2 11 -4 13 -1 9 10 -3 9 -13 14
-22 11 -14 -5 -14 -3 1 6 12 8 16 18 11 33 -3 12 -3 19 1 14 5 -4 9 -17 11
-30z m41 -13 c-3 -3 -12 -4 -19 -1 -8 3 -5 6 6 6 11 1 17 -2 13 -5z m-3162
-153 c3 -5 2 -12 -3 -15 -5 -3 -9 1 -9 9 0 17 3 19 12 6z m85 -121 c0 10 3 10
14 1 8 -7 13 -21 11 -32 -2 -10 1 -19 6 -19 6 0 7 -5 4 -10 -5 -8 -11 -7 -21
1 -11 9 -12 14 -3 20 8 4 5 9 -9 13 -11 4 -23 14 -26 23 -5 13 -4 14 9 3 12
-10 15 -10 15 0z m74 -141 c-3 -5 -10 -7 -15 -3 -5 3 -7 10 -3 15 3 5 10 7 15
3 5 -3 7 -10 3 -15z m2626 11 c0 -5 -5 -10 -11 -10 -5 0 -7 5 -4 10 3 6 8 10
11 10 2 0 4 -4 4 -10z m-60 -39 c0 -5 -10 -11 -22 -14 -22 -6 -22 -6 -4 8 23
17 26 18 26 6z m20 -10 c-5 -11 -19 -23 -30 -26 -11 -4 -17 -11 -14 -17 5 -7
2 -8 -6 -3 -11 7 -10 11 5 19 10 6 25 19 34 29 20 22 24 22 11 -2z m-2310 -67
c0 -8 -19 -13 -24 -6 -3 5 1 9 9 9 8 0 15 -2 15 -3z m2030 -84 c0 -5 -5 -10
-11 -10 -5 0 -7 5 -4 10 3 6 8 10 11 10 2 0 4 -4 4 -10z m-1985 -19 c3 -5 2
-12 -3 -15 -5 -3 -9 1 -9 9 0 17 3 19 12 6z m1998 -16 c-3 -9 -8 -14 -10 -11
-3 3 -2 9 2 15 9 16 15 13 8 -4z m-230 -132 c-4 -11 -3 -14 5 -9 8 5 10 2 5
-10 -5 -15 -7 -15 -15 0 -5 9 -6 21 -3 26 10 16 15 12 8 -7z m-86 -18 c0 -8
-4 -12 -9 -9 -5 3 -6 10 -3 15 9 13 12 11 12 -6z m77 -21 c3 -8 2 -12 -4 -9
-6 3 -10 10 -10 16 0 14 7 11 14 -7z m-274 -52 c0 -5 -7 -9 -15 -9 -8 0 -12 4
-9 9 3 4 9 8 15 8 5 0 9 -4 9 -8z m-986 -91 c-5 -6 -34 20 -34 30 0 5 8 1 18
-8 10 -10 17 -20 16 -22z m32 26 c4 -3 -4 -4 -16 -2 -30 6 -40 16 -12 12 12
-2 24 -6 28 -10z m110 -11 c2 -14 -20 -16 -33 -2 -4 4 -1 6 7 4 9 -2 14 3 12
12 -2 8 0 11 4 7 4 -4 9 -14 10 -21z m585 14 c1 -5 2 -16 3 -22 1 -7 -2 -18
-7 -25 -5 -7 -4 -21 3 -35 10 -22 10 -22 -4 -4 -8 10 -17 24 -19 30 -2 6 -7 8
-11 5 -7 -7 16 -59 27 -59 4 0 7 -5 7 -11 0 -6 -9 -4 -21 4 -11 8 -28 14 -37
12 -9 -1 -11 0 -4 2 7 3 9 10 5 16 -4 7 1 6 10 -2 11 -8 17 -9 17 -3 0 15 -35
33 -46 24 -5 -4 -2 1 5 10 7 9 10 21 7 26 -3 5 8 8 24 7 17 -1 27 2 23 8 -4 6
-1 7 8 2 8 -5 11 -4 6 0 -11 12 -47 14 -40 2 3 -6 1 -7 -5 -3 -7 4 -12 11 -12
17 0 12 60 12 61 -1z m-641 -4 c0 -2 -8 -10 -17 -17 -16 -13 -17 -12 -4 4 13
16 21 21 21 13z m-125 -16 c3 -5 1 -10 -4 -10 -6 0 -11 5 -11 10 0 6 2 10 4
10 3 0 8 -4 11 -10z m281 -5 c-1 -8 -5 -17 -8 -21 -5 -4 -4 16 1 34 3 9 9 -1
7 -13z m-140 -21 c1 -9 0 -13 -4 -10 -3 4 -7 14 -8 22 -1 9 0 13 4 10 3 -4 7
-14 8 -22z m-119 0 c-3 -3 -12 -4 -19 -1 -8 3 -5 6 6 6 11 1 17 -2 13 -5z m59
-19 c-1 -8 -8 -20 -14 -25 -8 -7 -9 -7 -3 1 5 6 7 18 4 25 -3 8 -1 14 5 14 6
0 9 -7 8 -15z m166 -9 c20 -1 24 -4 16 -14 -6 -7 -14 -9 -17 -5 -3 4 -15 10
-26 12 -19 3 -19 2 -2 -16 14 -16 14 -20 2 -20 -8 0 -11 5 -8 10 3 6 1 7 -6 3
-14 -9 -5 -26 14 -26 8 0 16 -4 19 -8 2 -4 -4 -8 -15 -8 -10 0 -19 4 -19 8 0
4 -5 8 -11 8 -5 0 -8 -4 -4 -9 3 -5 1 -12 -4 -16 -6 -3 -8 3 -6 14 2 14 -1 18
-11 14 -7 -3 -11 -9 -8 -14 3 -5 0 -8 -8 -7 -7 2 -12 -2 -11 -8 1 -6 -5 -11
-13 -11 -12 0 -12 3 2 18 9 10 11 19 6 23 -6 3 -13 0 -15 -6 -4 -9 -6 -10 -6
-1 -1 6 4 15 9 18 6 3 10 12 10 18 -1 7 -9 1 -20 -12 -11 -12 -17 -27 -14 -32
3 -5 1 -9 -5 -9 -12 0 -12 59 0 66 5 3 6 -3 3 -13 -4 -14 -1 -13 15 5 11 13
24 21 28 19 4 -2 17 -1 28 4 11 4 27 5 35 2 8 -3 27 -6 42 -7z m596 -20 c11
-7 8 -44 -4 -55 -4 -3 -4 2 -1 12 4 9 2 17 -4 17 -6 0 -7 5 -3 12 4 7 3 8 -4
4 -7 -4 -12 -1 -13 6 0 10 -2 10 -6 0 -5 -13 -23 -7 -23 8 0 9 41 7 58 -4z
m-565 -11 c-3 -9 -8 -14 -10 -11 -3 3 -2 9 2 15 9 16 15 13 8 -4z m-206 -20
c0 -8 -4 -12 -9 -9 -5 3 -6 10 -3 15 9 13 12 11 12 -6z m228 5 c3 -5 1 -10 -4
-10 -6 0 -11 5 -11 10 0 6 2 10 4 10 3 0 8 -4 11 -10z m523 -13 c2 -10 -2 -17
-8 -17 -6 0 -8 5 -4 12 5 7 3 8 -7 2 -23 -14 -42 -14 -30 0 6 7 8 16 4 20 -4
3 4 5 18 3 13 -2 25 -11 27 -20z m-107 -10 c-10 -9 -11 -8 -5 6 3 10 9 15 12
12 3 -3 0 -11 -7 -18z m-653 -15 c15 12 16 11 3 -4 -14 -19 -32 -15 -30 5 0 8
2 8 6 -1 4 -10 8 -10 21 0z m35 -17 c-3 -9 -8 -14 -10 -11 -3 3 -2 9 2 15 9
16 15 13 8 -4z m811 6 c3 -5 -2 -15 -12 -22 -15 -12 -16 -12 -5 2 7 9 10 19 6
22 -3 4 -4 7 0 7 3 0 8 -4 11 -9z m-807 -46 c0 -8 -4 -15 -9 -15 -10 0 -11 14
-1 23 9 10 10 9 10 -8z m-41 -13 c0 -10 -6 -19 -13 -19 -8 0 -9 6 -2 19 5 10
11 18 12 18 2 0 3 -8 3 -18z m1181 -9 c-4 -3 -1 -13 6 -22 10 -14 10 -14 -4
-4 -9 7 -20 9 -25 5 -4 -4 -2 1 5 11 7 9 16 17 19 17 3 0 2 -3 -1 -7z m-1281
-22 c0 -11 -5 -17 -13 -14 -10 4 -11 9 -2 19 15 18 15 18 15 -5z m997 4 c-3
-9 -8 -14 -10 -11 -3 3 -2 9 2 15 9 16 15 13 8 -4z m201 -14 c-2 -3 -12 3 -22
13 -16 17 -16 18 5 5 12 -7 20 -15 17 -18z m-1274 15 c0 -2 -7 -7 -16 -10 -8
-3 -12 -2 -9 4 6 10 25 14 25 6z m1227 -2 c-3 -3 -12 -4 -19 -1 -8 3 -5 6 6 6
11 1 17 -2 13 -5z m-128 -17 c8 -10 7 -14 -2 -14 -8 0 -14 6 -14 14 0 7 1 13
2 13 2 0 8 -6 14 -13z m-1093 -9 c4 -7 3 -8 -4 -4 -7 4 -12 2 -12 -5 0 -7 -3
-10 -6 -6 -6 5 3 27 11 27 2 0 7 -5 11 -12z m1214 8 c0 -2 -7 -7 -16 -10 -8
-3 -12 -2 -9 4 6 10 25 14 25 6z m42 -13 c-6 -2 -9 -10 -6 -15 4 -7 2 -8 -5
-4 -13 9 -5 26 12 25 9 0 8 -2 -1 -6z m38 -14 c0 -5 -4 -9 -8 -9 -5 0 -9 7 -9
15 0 8 4 12 9 9 4 -3 8 -9 8 -15z m-1535 -47 c1 -12 -5 -28 -14 -35 -14 -11
-14 -10 -2 6 8 10 9 17 3 17 -6 0 -16 -8 -21 -17 -7 -12 -10 -13 -11 -5 0 8
10 22 23 33 12 10 17 18 10 19 -6 0 -14 -4 -18 -10 -3 -5 -13 -6 -21 -3 -20 8
-1 21 28 19 15 -1 22 -8 23 -24z m1732 22 c-3 -3 -12 -4 -19 -1 -8 3 -5 6 6 6
11 1 17 -2 13 -5z m19 -30 c-3 -9 -11 -12 -18 -8 -8 5 -9 2 -4 -12 5 -14 4
-16 -5 -7 -13 13 -3 37 12 28 5 -4 9 4 10 17 0 13 3 17 6 10 3 -7 2 -20 -1
-28z m-41 8 c-3 -3 -11 0 -18 7 -9 10 -8 11 6 5 10 -3 15 -9 12 -12z m-1642
-27 c-7 -21 -12 -19 -10 4 0 11 5 18 9 15 4 -3 5 -11 1 -19z m-145 -42 c0 -10
1 -24 3 -32 7 -24 -29 -20 -53 7 -13 14 -17 22 -10 18 6 -4 12 -3 12 3 0 5 9
8 20 6 11 -2 20 0 20 6 0 5 2 9 4 9 3 0 4 -8 4 -17z m1897 -3 c39 -26 25 -26
-17 0 -18 11 -28 20 -23 20 6 0 24 -9 40 -20z m-25 -21 c0 -5 -4 -9 -8 -9 -5
0 -9 7 -9 15 0 8 4 12 9 9 4 -3 8 -9 8 -15z m-1990 -99 c0 -5 -2 -10 -4 -10
-3 0 -8 5 -11 10 -3 6 -1 10 4 10 6 0 11 -4 11 -10z m12 -22 c-8 -8 -9 -4 -5
13 4 13 8 18 11 10 2 -7 -1 -18 -6 -23z m22 -44 c5 -14 4 -15 -9 -4 -17 14
-19 20 -6 20 5 0 12 -7 15 -16z m2032 -9 c1 -8 -1 -17 -5 -19 -4 -3 -7 6 -7
19 0 25 8 25 12 0z m-2056 -5 c0 -5 -4 -10 -10 -10 -5 0 -10 5 -10 10 0 6 5
10 10 10 6 0 10 -4 10 -10z m10 -120 c0 -5 -9 -8 -20 -7 -20 1 -25 8 -14 20 8
7 34 -3 34 -13z m2045 -30 c3 -5 1 -10 -4 -10 -6 0 -11 5 -11 10 0 6 2 10 4
10 3 0 8 -4 11 -10z m-1971 -32 c-5 -8 11 -12 30 -9 5 1 4 -4 -2 -12 -8 -9 -8
-17 -2 -25 7 -9 7 -9 -2 -2 -16 14 -31 13 -22 -1 5 -8 2 -9 -12 -1 -24 14 -27
58 -3 58 10 0 15 -4 13 -8z m1936 2 c0 -5 -5 -10 -11 -10 -5 0 -7 5 -4 10 3 6
8 10 11 10 2 0 4 -4 4 -10z m-1780 -80 c0 -5 -2 -10 -4 -10 -3 0 -8 5 -11 10
-3 6 -1 10 4 10 6 0 11 -4 11 -10z m440 -74 c0 -3 -4 -8 -10 -11 -5 -3 -10 -1
-10 4 0 6 5 11 10 11 6 0 10 -2 10 -4z m736 -22 c1 -9 0 -13 -4 -10 -3 4 -7
14 -8 22 -1 9 0 13 4 10 3 -4 7 -14 8 -22z m38 17 c3 -5 -2 -15 -12 -22 -15
-12 -16 -12 -5 2 7 9 10 19 6 22 -3 4 -4 7 0 7 3 0 8 -4 11 -9z m-815 -21 c-6
-5 -18 -6 -26 -3 -19 8 -16 11 13 11 17 0 22 -3 13 -8z m511 -60 c0 -5 -2 -10
-4 -10 -3 0 -8 5 -11 10 -3 6 -1 10 4 10 6 0 11 -4 11 -10z"/>
<path d="M3308 4768 c9 -9 9 -15 -1 -27 -7 -9 -1 -7 15 4 30 23 29 24 -2 30
-18 3 -21 2 -12 -7z"/>
<path d="M1626 4611 c-6 -14 0 -35 12 -37 7 -1 8 0 2 3 -8 3 -6 11 4 22 14 16
15 18 1 18 -9 0 -17 -3 -19 -6z"/>
<path d="M913 2283 c-3 -10 -8 -22 -11 -27 -3 -5 1 -6 8 -1 8 5 18 1 27 -10 7
-11 13 -14 13 -8 0 7 -4 15 -10 18 -5 3 -10 11 -10 16 0 6 6 7 13 3 8 -5 8 -2
-2 9 -17 21 -20 21 -28 0z"/>
<path d="M2818 1052 c-12 -15 -11 -16 4 -4 9 8 22 11 27 8 5 -4 12 -3 15 2 10
16 -33 10 -46 -6z"/>
<path d="M2286 1021 c-3 -5 0 -11 7 -14 8 -3 14 1 14 9 0 16 -13 19 -21 5z"/>
<path d="M2245 996 c2 -24 3 -24 30 -7 17 11 18 12 1 7 -13 -4 -17 -2 -13 7 3
8 0 14 -7 14 -7 0 -12 -10 -11 -21z"/>
<path d="M1641 671 c-11 -7 -11 -10 0 -17 27 -17 39 -14 29 7 -12 22 -11 21
-29 10z"/>
<path d="M1640 280 c12 -8 12 -10 1 -10 -8 0 -12 -2 -9 -5 3 -3 13 -2 22 1 14
5 15 9 4 15 -7 5 -17 9 -23 9 -5 0 -3 -5 5 -10z"/>
<path d="M2026 4937 c3 -10 9 -15 12 -12 3 3 0 11 -7 18 -10 9 -11 8 -5 -6z"/>
<path d="M2960 4940 c-12 -7 -12 -11 -2 -20 6 -5 10 -7 7 -4 -3 4 0 13 6 21
13 15 10 16 -11 3z"/>
<path d="M2121 4931 c-10 -6 -10 -10 -1 -16 9 -6 9 -9 -1 -16 -10 -6 -7 -8 8
-6 16 1 19 4 12 14 -6 7 -8 17 -4 23 7 12 4 12 -14 1z"/>
<path d="M2921 4924 c0 -11 3 -14 6 -6 3 7 2 16 -1 19 -3 4 -6 -2 -5 -13z"/>
<path d="M2030 4900 c0 -5 5 -10 10 -10 6 0 10 5 10 10 0 6 -4 10 -10 10 -5 0
-10 -4 -10 -10z"/>
<path d="M1927 4866 c4 -20 9 -24 18 -16 6 5 14 8 17 5 3 -3 11 1 18 10 11 13
10 14 -5 9 -14 -6 -16 -4 -10 7 7 11 6 12 -6 2 -11 -9 -19 -9 -26 -2 -7 7 -9
3 -6 -15z"/>
<path d="M3180 4869 c0 -5 -4 -8 -8 -5 -4 2 -14 0 -22 -5 -11 -7 -9 -8 9 -6
21 3 45 27 27 27 -3 0 -6 -5 -6 -11z"/>
<path d="M3158 4833 c7 -3 16 -2 19 1 4 3 -2 6 -13 5 -11 0 -14 -3 -6 -6z"/>
<path d="M3190 4820 c0 -5 5 -10 11 -10 5 0 7 5 4 10 -3 6 -8 10 -11 10 -2 0
-4 -4 -4 -10z"/>
<path d="M1856 4789 c2 -5 11 -6 18 -3 8 3 16 1 20 -4 3 -5 -8 -8 -24 -7 -17
1 -28 0 -25 -3 3 -3 0 -11 -6 -19 -13 -15 -14 -15 28 -17 17 -1 30 1 27 5 -2
4 3 10 12 13 12 5 14 10 5 20 -6 7 -9 15 -6 18 3 2 -8 4 -25 4 -16 0 -27 -3
-24 -7z m31 -35 c-9 -10 -47 -12 -42 -3 4 5 11 7 16 4 5 -4 9 -1 9 5 0 6 5 8
11 5 6 -4 8 -9 6 -11z"/>
<path d="M3430 4779 c0 -5 5 -7 10 -4 6 3 10 8 10 11 0 2 -4 4 -10 4 -5 0 -10
-5 -10 -11z"/>
<path d="M3386 4758 c3 -4 11 -5 19 -1 21 7 19 12 -4 10 -11 0 -18 -5 -15 -9z"/>
<path d="M1694 4681 c0 -12 6 -17 18 -13 10 2 18 9 18 15 0 6 -3 7 -7 4 -3 -4
-11 -3 -17 3 -8 6 -12 3 -12 -9z"/>
<path d="M3750 4631 c0 -7 -5 -9 -12 -5 -7 5 -8 3 -3 -5 5 -9 10 -10 18 -2 6
6 8 14 4 18 -4 3 -7 1 -7 -6z"/>
<path d="M3708 4603 c7 -3 16 -2 19 1 4 3 -2 6 -13 5 -11 0 -14 -3 -6 -6z"/>
<path d="M1542 4548 c-14 -14 -16 -48 -3 -48 6 0 13 5 17 12 4 7 3 8 -4 4 -15
-9 -15 -1 -2 25 12 22 9 24 -8 7z"/>
<path d="M3879 4462 c21 -7 22 -9 7 -21 -9 -7 -16 -19 -16 -25 0 -6 5 -3 11 6
5 9 16 15 24 12 8 -4 12 -10 9 -15 -3 -5 0 -9 5 -9 16 0 13 18 -3 27 -8 4 -14
13 -13 18 1 6 -9 11 -23 12 l-25 2 24 -7z"/>
<path d="M1300 4380 c-9 -6 -10 -10 -3 -10 6 0 15 5 18 10 8 12 4 12 -15 0z"/>
<path d="M1240 4300 c-9 -6 -10 -10 -3 -10 6 0 15 5 18 10 8 12 4 12 -15 0z"/>
<path d="M4135 4260 c3 -5 8 -10 11 -10 2 0 4 5 4 10 0 6 -5 10 -11 10 -5 0
-7 -4 -4 -10z"/>
<path d="M1121 4147 c2 -32 17 -50 45 -53 24 -2 26 -1 11 7 -9 6 -15 14 -12
19 3 5 1 11 -5 15 -6 4 -8 10 -6 14 3 4 -4 8 -15 8 -10 1 -19 -4 -18 -10z m29
-12 c11 -13 10 -14 -4 -9 -9 3 -16 10 -16 15 0 13 6 11 20 -6z"/>
<path d="M4205 4150 c-4 -6 -11 -7 -17 -4 -7 4 -8 2 -4 -5 6 -9 12 -9 24 1 10
7 19 14 21 15 2 2 -1 3 -7 3 -6 0 -14 -5 -17 -10z"/>
<path d="M4228 4136 c-10 -7 -14 -16 -10 -21 4 -4 -4 -4 -18 -1 -22 6 -23 6
-6 -5 16 -10 21 -9 31 4 7 9 14 15 17 12 2 -3 5 2 5 10 0 8 -1 15 -1 15 -1 0
-9 -7 -18 -14z"/>
<path d="M4270 4056 c0 -2 7 -9 15 -16 13 -11 14 -10 9 4 -5 14 -24 23 -24 12z"/>
<path d="M1083 4015 c0 -7 6 -11 14 -8 7 3 13 6 13 8 0 2 -6 5 -13 8 -8 3 -14
-1 -14 -8z"/>
<path d="M889 3823 c-13 -17 -13 -17 6 -3 11 8 22 16 24 17 2 2 0 3 -6 3 -6 0
-17 -8 -24 -17z"/>
<path d="M935 3820 c3 -5 8 -10 11 -10 2 0 4 5 4 10 0 6 -5 10 -11 10 -5 0 -7
-4 -4 -10z"/>
<path d="M899 3808 c-14 -46 -17 -88 -8 -94 5 -3 9 -10 9 -15 0 -6 -5 -7 -12
-3 -7 4 -8 3 -4 -5 6 -9 11 -9 21 -1 7 6 19 9 26 8 16 -4 19 40 5 64 -9 15
-11 15 -22 0 -11 -15 -12 -13 -11 11 1 17 7 25 15 22 6 -2 12 0 12 5 0 8 -28
15 -31 8z m37 -83 c0 -15 -3 -22 -10 -17 -6 4 -15 7 -20 7 -5 0 -10 8 -12 18
-1 9 2 15 6 12 5 -3 12 0 15 6 10 15 19 3 21 -26z"/>
<path d="M911 3737 c-8 -10 -7 -14 2 -14 8 0 14 6 14 14 0 7 -1 13 -2 13 -2 0
-8 -6 -14 -13z"/>
<path d="M800 3646 c0 -2 8 -10 18 -17 15 -13 16 -12 3 4 -13 16 -21 21 -21
13z"/>
<path d="M826 3599 c2 -4 -1 -9 -8 -11 -6 -2 -12 -14 -13 -26 -1 -12 1 -20 3
-17 3 3 10 -2 17 -11 10 -14 13 -13 29 11 17 26 17 29 2 37 -9 5 -14 13 -12
17 3 4 -1 8 -9 8 -8 0 -12 -4 -9 -8z m28 -40 c-8 -14 -31 -11 -37 5 -4 11 -1
13 10 9 12 -5 14 -3 8 8 -8 12 -6 12 8 0 9 -7 14 -17 11 -22z"/>
<path d="M4509 3423 c-13 -16 -12 -17 4 -4 16 13 21 21 13 21 -2 0 -10 -8 -17
-17z"/>
<path d="M4530 3410 c-9 -6 -10 -10 -3 -10 6 0 15 5 18 10 8 12 4 12 -15 0z"/>
<path d="M4555 3389 c-4 -6 -5 -12 -2 -15 2 -3 7 2 10 11 7 17 1 20 -8 4z"/>
<path d="M755 3320 c3 -5 8 -10 11 -10 2 0 4 5 4 10 0 6 -5 10 -11 10 -5 0 -7
-4 -4 -10z"/>
<path d="M750 3296 c0 -2 8 -10 18 -17 15 -13 16 -12 3 4 -13 16 -21 21 -21
13z"/>
<path d="M726 3282 c-3 -5 1 -9 9 -9 8 0 12 4 9 9 -3 4 -7 8 -9 8 -2 0 -6 -4
-9 -8z"/>
<path d="M774 3240 c0 -13 4 -16 10 -10 7 7 7 13 0 20 -6 6 -10 3 -10 -10z"/>
<path d="M726 3238 c3 -5 10 -6 15 -3 13 9 11 12 -6 12 -8 0 -12 -4 -9 -9z"/>
<path d="M735 3211 c-6 -11 13 -26 22 -17 4 3 1 6 -6 6 -7 0 -9 5 -6 10 3 6 4
10 1 10 -3 0 -7 -4 -11 -9z"/>
<path d="M770 3180 c0 -5 -5 -9 -11 -7 -6 1 -17 -9 -26 -23 -14 -24 -14 -24 1
-5 9 11 22 20 28 20 6 0 13 6 16 13 2 6 1 12 -2 12 -3 0 -6 -4 -6 -10z"/>
<path d="M765 3150 c-16 -7 -17 -9 -3 -9 9 -1 20 4 23 9 7 11 7 11 -20 0z"/>
<path d="M747 3117 c4 -6 0 -8 -9 -5 -25 10 -14 -33 13 -48 l24 -14 -25 4 -25
4 0 -102 c0 -56 4 -104 10 -108 6 -5 5 -11 -4 -17 -9 -6 -10 -11 -2 -15 15
-10 31 2 25 18 -3 7 2 13 11 13 18 0 18 -2 4 -29 -7 -13 -7 -18 -1 -14 6 3 12
-2 15 -11 2 -10 4 8 3 40 0 31 -4 57 -8 57 -5 0 -8 5 -8 11 0 5 3 8 8 6 4 -3
7 32 7 78 0 46 -3 81 -7 79 -4 -3 -8 2 -8 11 0 10 5 13 12 9 7 -4 8 -3 4 5 -4
6 -11 9 -16 6 -5 -3 -11 -1 -15 5 -6 9 7 14 28 11 4 0 7 3 7 8 0 5 -11 9 -25
9 -15 0 -22 -5 -18 -11z m12 -40 c0 -9 -2 -8 -6 1 -2 6 -10 9 -15 6 -7 -4 -8
-2 -4 5 9 13 26 5 25 -12z m17 -53 c0 -13 -4 -22 -9 -21 -5 1 -12 -4 -14 -11
-3 -7 1 -11 8 -10 15 3 18 -38 6 -65 -5 -11 -4 -23 2 -30 10 -13 1 -39 -14
-39 -13 0 -24 26 -16 37 10 12 8 66 -3 84 -4 6 -2 18 4 26 9 11 10 19 1 28
-13 16 -8 23 17 23 12 0 18 -8 18 -22z"/>
<path d="M747 3029 c7 -7 15 -10 18 -7 3 3 -2 9 -12 12 -14 6 -15 5 -6 -5z"/>
<path d="M747 2963 c3 -7 6 -13 8 -13 2 0 5 6 8 13 3 8 -1 14 -8 14 -7 0 -11
-6 -8 -14z"/>
<path d="M755 2929 c-4 -6 -5 -12 -2 -15 2 -3 7 2 10 11 7 17 1 20 -8 4z"/>
<path d="M746 2882 c-3 -5 1 -9 9 -9 8 0 12 4 9 9 -3 4 -7 8 -9 8 -2 0 -6 -4
-9 -8z"/>
<path d="M4614 2976 c1 -8 5 -18 8 -22 4 -3 5 1 4 10 -1 8 -5 18 -8 22 -4 3
-5 -1 -4 -10z"/>
<path d="M755 2780 c-3 -5 -1 -10 4 -10 6 0 11 5 11 10 0 6 -2 10 -4 10 -3 0
-8 -4 -11 -10z"/>
<path d="M756 2747 c3 -10 9 -15 12 -12 3 3 0 11 -7 18 -10 9 -11 8 -5 -6z"/>
<path d="M726 2742 c-3 -5 1 -9 9 -9 8 0 12 4 9 9 -3 4 -7 8 -9 8 -2 0 -6 -4
-9 -8z"/>
<path d="M4519 2638 c-18 -75 -18 -77 -2 -71 12 5 14 3 8 -8 -7 -11 -6 -12 7
-2 8 7 19 9 23 5 5 -4 5 -2 2 5 -4 6 -1 14 5 16 10 4 9 6 -1 6 -11 1 -11 4 -1
16 7 8 10 16 6 16 -3 1 -9 2 -13 3 -5 1 -14 5 -20 9 -7 5 -13 7 -14 5z m36
-20 c5 4 4 0 -1 -8 -5 -8 -9 -18 -9 -22 0 -5 -3 -8 -7 -8 -31 0 -33 1 -22 8 6
4 10 15 8 25 -2 14 1 15 10 8 7 -6 17 -7 21 -3z"/>
<path d="M855 2460 c-3 -6 -17 -8 -29 -6 -24 4 -24 4 -16 -64 1 -9 5 -7 10 8
10 24 25 29 36 10 4 -6 3 -8 -4 -4 -6 3 -13 3 -16 -2 -2 -4 3 -8 13 -9 15 -1
18 6 17 38 -1 42 -2 44 -11 29z m2 -27 c0 -7 -4 -10 -9 -7 -5 3 -15 1 -23 -6
-11 -9 -13 -7 -10 7 2 10 4 18 4 18 12 6 38 -3 38 -12z"/>
<path d="M833 2335 c0 -8 4 -12 9 -9 5 3 6 10 3 15 -9 13 -12 11 -12 -6z"/>
<path d="M4433 2265 c0 -8 4 -12 9 -9 5 3 6 10 3 15 -9 13 -12 11 -12 -6z"/>
<path d="M890 2161 c0 -4 11 -7 25 -7 14 0 25 3 25 7 0 3 -11 7 -25 7 -14 0
-25 -4 -25 -7z"/>
<path d="M4340 2079 c0 -5 5 -7 10 -4 6 3 10 8 10 11 0 2 -4 4 -10 4 -5 0 -10
-5 -10 -11z"/>
<path d="M980 2046 c4 -4 16 -4 26 2 16 9 14 10 -8 9 -15 -1 -23 -6 -18 -11z"/>
<path d="M986 2018 c3 -5 10 -6 15 -3 13 9 11 12 -6 12 -8 0 -12 -4 -9 -9z"/>
<path d="M4308 1963 c7 -3 16 -2 19 1 4 3 -2 6 -13 5 -11 0 -14 -3 -6 -6z"/>
<path d="M4270 1926 c0 -2 7 -7 16 -10 8 -3 12 -2 9 4 -6 10 -25 14 -25 6z"/>
<path d="M4186 1877 c1 -12 3 -27 3 -34 1 -7 10 -10 23 -8 24 5 49 25 31 25
-7 0 -15 -4 -18 -10 -4 -6 -11 -5 -19 3 -8 7 -10 15 -4 18 5 3 3 11 -5 17 -11
9 -13 7 -11 -11z"/>
<path d="M1070 1885 c0 -7 30 -13 34 -7 3 4 -4 9 -15 9 -10 1 -19 0 -19 -2z"/>
<path d="M4140 1800 c6 -10 7 -26 4 -34 -4 -11 0 -16 12 -16 16 0 17 2 4 10
-8 5 -10 10 -5 10 19 0 14 38 -6 43 -15 4 -17 2 -9 -13z"/>
<path d="M4107 1764 c3 -7 9 -14 14 -14 14 0 10 17 -5 23 -10 4 -13 1 -9 -9z"/>
<path d="M1209 1715 c17 -34 31 -51 31 -39 0 7 -9 22 -21 35 -16 19 -18 20
-10 4z"/>
<path d="M4106 1718 c3 -5 10 -6 15 -3 13 9 11 12 -6 12 -8 0 -12 -4 -9 -9z"/>
<path d="M1395 1572 c-11 -11 -4 -21 13 -19 21 1 26 24 5 24 -7 0 -15 -3 -18
-5z"/>
<path d="M3958 1543 c7 -3 16 -2 19 1 4 3 -2 6 -13 5 -11 0 -14 -3 -6 -6z"/>
<path d="M1475 1485 c-25 -12 -26 -14 -5 -9 14 4 29 10 35 15 12 12 5 11 -30
-6z"/>
<path d="M3785 1466 c1 -17 6 -29 11 -27 5 1 8 7 7 12 -2 4 4 6 12 3 8 -4 12
-11 8 -17 -3 -6 -1 -7 5 -3 9 5 9 13 2 26 -14 26 -13 29 13 23 12 -3 19 -3 16
1 -4 4 -22 8 -41 10 -33 3 -34 2 -33 -28z m28 10 c4 -10 1 -13 -8 -9 -8 3 -12
9 -9 14 7 12 11 11 17 -5z"/>
<path d="M1513 1465 c0 -8 4 -15 9 -15 5 0 6 -5 2 -11 -4 -6 1 -9 12 -8 11 2
25 0 32 -5 11 -7 11 -4 1 12 -7 12 -15 19 -18 17 -2 -3 -12 2 -21 10 -15 13
-17 13 -17 0z"/>
<path d="M1480 1439 c0 -5 5 -7 10 -4 6 3 10 8 10 11 0 2 -4 4 -10 4 -5 0 -10
-5 -10 -11z"/>
<path d="M1540 1413 c0 -7 5 -15 11 -19 8 -4 7 -9 -2 -15 -10 -6 -10 -9 -2 -9
19 0 22 14 7 35 -8 10 -14 14 -14 8z"/>
<path d="M1657 1318 c19 -21 31 -25 14 -5 -6 8 -9 16 -6 19 3 2 -2 5 -10 5
-13 0 -13 -3 2 -19z"/>
<path d="M1686 1238 c1 -13 3 -29 3 -35 1 -17 49 -12 56 5 3 8 0 21 -6 29 -10
11 -15 11 -33 -4 -15 -13 -17 -14 -8 -2 6 9 9 19 5 22 -13 13 -20 7 -17 -15z
m44 -17 c0 -5 -7 -12 -16 -15 -14 -5 -15 -4 -4 9 14 17 20 19 20 6z"/>
<path d="M1761 1166 c-8 -9 -8 -16 -2 -20 6 -4 7 -14 4 -24 -3 -9 -3 -14 2
-10 7 6 16 68 10 68 -1 0 -8 -6 -14 -14z"/>
<path d="M1952 1004 c4 -3 1 -13 -7 -21 -8 -8 -15 -20 -15 -26 0 -7 5 -4 11 5
5 10 17 21 25 26 14 8 14 10 -2 16 -10 4 -15 4 -12 0z"/>
<path d="M2990 1001 c0 -6 4 -13 10 -16 6 -3 7 1 4 9 -7 18 -14 21 -14 7z"/>
<path d="M1965 960 c3 -5 8 -10 11 -10 2 0 4 5 4 10 0 6 -5 10 -11 10 -5 0 -7
-4 -4 -10z"/>
<path d="M2026 925 c-11 -8 -15 -15 -9 -15 6 0 16 7 23 15 16 19 11 19 -14 0z"/>
<path d="M2110 922 c0 -5 7 -15 15 -22 8 -7 15 -8 15 -2 0 5 -7 15 -15 22 -8
7 -15 8 -15 2z"/>
<path d="M3196 918 c3 -5 10 -6 15 -3 13 9 11 12 -6 12 -8 0 -12 -4 -9 -9z"/>
<path d="M3296 902 c-3 -5 1 -9 9 -9 8 0 12 4 9 9 -3 4 -7 8 -9 8 -2 0 -6 -4
-9 -8z"/>
<path d="M3475 900 c3 -5 8 -10 11 -10 2 0 4 5 4 10 0 6 -5 10 -11 10 -5 0 -7
-4 -4 -10z"/>
<path d="M1770 859 c0 -5 5 -7 10 -4 6 3 10 8 10 11 0 2 -4 4 -10 4 -5 0 -10
-5 -10 -11z"/>
<path d="M1836 855 c-9 -26 -7 -32 5 -12 6 10 9 21 6 23 -2 3 -7 -2 -11 -11z"/>
<path d="M3475 849 c-4 -6 -5 -12 -2 -15 2 -3 7 2 10 11 7 17 1 20 -8 4z"/>
<path d="M1920 825 c-7 -9 -11 -18 -8 -20 3 -3 11 1 18 10 7 9 11 18 8 20 -3
3 -11 -1 -18 -10z"/>
<path d="M1696 822 c-3 -4 4 -9 15 -9 23 -2 25 3 4 10 -8 4 -16 3 -19 -1z"/>
<path d="M1870 826 c0 -2 7 -6 15 -10 8 -3 15 -1 15 4 0 6 -7 10 -15 10 -8 0
-15 -2 -15 -4z"/>
<path d="M3304 818 c-4 -7 -4 -10 1 -6 4 4 15 2 24 -5 14 -11 14 -10 2 6 -16
20 -18 21 -27 5z"/>
<path d="M1250 780 c0 -5 5 -10 11 -10 5 0 7 5 4 10 -3 6 -8 10 -11 10 -2 0
-4 -4 -4 -10z"/>
<path d="M1596 782 c-3 -5 1 -9 9 -9 8 0 12 4 9 9 -3 4 -7 8 -9 8 -2 0 -6 -4
-9 -8z"/>
<path d="M1005 760 c-3 -6 1 -7 9 -4 18 7 21 14 7 14 -6 0 -13 -4 -16 -10z"/>
<path d="M1090 759 c0 -5 5 -7 10 -4 6 3 10 8 10 11 0 2 -4 4 -10 4 -5 0 -10
-5 -10 -11z"/>
<path d="M1134 756 c1 -8 5 -18 8 -22 4 -3 5 1 4 10 -1 8 -5 18 -8 22 -4 3 -5
-1 -4 -10z"/>
<path d="M1340 766 c0 -2 8 -10 18 -17 15 -13 16 -12 3 4 -13 16 -21 21 -21
13z"/>
<path d="M1650 761 c0 -6 4 -13 10 -16 6 -3 7 1 4 9 -7 18 -14 21 -14 7z"/>
<path d="M1046 742 c-3 -5 1 -9 9 -9 8 0 12 4 9 9 -3 4 -7 8 -9 8 -2 0 -6 -4
-9 -8z"/>
<path d="M1215 740 c-3 -5 -1 -10 4 -10 6 0 11 5 11 10 0 6 -2 10 -4 10 -3 0
-8 -4 -11 -10z"/>
<path d="M1250 740 c0 -5 5 -10 11 -10 5 0 7 5 4 10 -3 6 -8 10 -11 10 -2 0
-4 -4 -4 -10z"/>
<path d="M795 729 c-4 -6 -5 -12 -2 -15 2 -3 7 2 10 11 7 17 1 20 -8 4z"/>
<path d="M953 725 c0 -8 4 -12 9 -9 5 3 6 10 3 15 -9 13 -12 11 -12 -6z"/>
<path d="M1473 723 c4 -3 1 -13 -6 -22 -11 -14 -10 -14 5 -2 16 12 16 31 1 31
-4 0 -3 -3 0 -7z"/>
<path d="M1546 722 c-3 -5 1 -9 9 -9 8 0 15 4 15 9 0 4 -4 8 -9 8 -6 0 -12 -4
-15 -8z"/>
<path d="M3590 710 c0 -6 7 -10 15 -10 8 0 15 2 15 4 0 2 -7 6 -15 10 -8 3
-15 1 -15 -4z"/>
<path d="M816 702 c-3 -4 4 -9 15 -9 23 -2 25 3 4 10 -8 4 -16 3 -19 -1z"/>
<path d="M895 701 c-3 -5 -2 -12 3 -15 5 -3 9 1 9 9 0 17 -3 19 -12 6z"/>
<path d="M1175 700 c-3 -5 -1 -10 4 -10 6 0 11 5 11 10 0 6 -2 10 -4 10 -3 0
-8 -4 -11 -10z"/>
<path d="M1359 708 c-10 -33 6 -46 28 -24 4 4 1 6 -7 4 -8 -2 -14 3 -12 10 2
10 -6 19 -9 10z"/>
<path d="M1114 689 c-3 -6 -2 -15 3 -20 5 -5 9 -1 9 11 0 23 -2 24 -12 9z"/>
<path d="M1534 678 c0 -16 2 -16 18 -1 10 9 18 17 18 17 0 1 -8 2 -18 2 -10 0
-18 -8 -18 -18z"/>
<path d="M955 680 c3 -5 8 -10 11 -10 2 0 4 5 4 10 0 6 -5 10 -11 10 -5 0 -7
-4 -4 -10z"/>
<path d="M990 680 c0 -5 5 -10 11 -10 5 0 7 5 4 10 -3 6 -8 10 -11 10 -2 0 -4
-4 -4 -10z"/>
<path d="M1030 676 c7 -7 13 -7 20 0 6 6 3 10 -10 10 -13 0 -16 -4 -10 -10z"/>
<path d="M713 665 c0 -8 4 -12 9 -9 5 3 6 10 3 15 -9 13 -12 11 -12 -6z"/>
<path d="M755 660 c3 -5 8 -10 11 -10 2 0 4 5 4 10 0 6 -5 10 -11 10 -5 0 -7
-4 -4 -10z"/>
<path d="M890 659 c0 -5 5 -7 10 -4 6 3 10 8 10 11 0 2 -4 4 -10 4 -5 0 -10
-5 -10 -11z"/>
<path d="M1414 640 c0 -13 4 -16 10 -10 7 7 7 13 0 20 -6 6 -10 3 -10 -10z"/>
<path d="M1451 647 c-8 -10 -7 -14 2 -14 8 0 14 6 14 14 0 7 -1 13 -2 13 -2 0
-8 -6 -14 -13z"/>
<path d="M967 639 c7 -7 15 -10 18 -7 3 3 -2 9 -12 12 -14 6 -15 5 -6 -5z"/>
<path d="M1080 646 c0 -2 8 -10 18 -17 15 -13 16 -12 3 4 -13 16 -21 21 -21
13z"/>
<path d="M1206 638 c3 -5 10 -6 15 -3 13 9 11 12 -6 12 -8 0 -12 -4 -9 -9z"/>
<path d="M1530 624 c0 -27 4 -31 25 -31 20 0 23 2 14 13 -6 8 -16 11 -22 7 -5
-3 -7 -2 -4 3 3 6 2 16 -4 24 -6 11 -9 7 -9 -16z"/>
<path d="M3635 620 c4 -6 14 -9 23 -8 9 2 16 -3 15 -9 -2 -7 1 -13 6 -13 6 0
9 9 8 20 -1 15 -8 20 -30 20 -17 0 -26 -4 -22 -10z"/>
<path d="M933 605 c0 -8 4 -15 9 -15 4 0 8 4 8 9 0 6 -4 12 -8 15 -5 3 -9 -1
-9 -9z"/>
<path d="M1015 610 c-4 -6 -10 -8 -15 -5 -5 3 -11 1 -14 -4 -8 -13 22 -7 36 7
7 7 9 12 6 12 -4 0 -10 -5 -13 -10z"/>
<path d="M1053 605 c0 -8 3 -13 5 -10 3 3 10 0 17 -5 8 -7 12 -5 12 5 0 8 -3
13 -5 10 -3 -3 -10 0 -17 5 -8 7 -12 5 -12 -5z"/>
<path d="M1438 613 c7 -3 16 -2 19 1 4 3 -2 6 -13 5 -11 0 -14 -3 -6 -6z"/>
<path d="M716 602 c-3 -5 1 -9 9 -9 8 0 12 4 9 9 -3 4 -7 8 -9 8 -2 0 -6 -4
-9 -8z"/>
<path d="M786 602 c-3 -5 1 -9 9 -9 8 0 12 4 9 9 -3 4 -7 8 -9 8 -2 0 -6 -4
-9 -8z"/>
<path d="M1170 601 c0 -6 4 -13 10 -16 6 -3 7 1 4 9 -7 18 -14 21 -14 7z"/>
<path d="M1246 602 c-3 -5 1 -9 9 -9 8 0 12 4 9 9 -3 4 -7 8 -9 8 -2 0 -6 -4
-9 -8z"/>
<path d="M1294 598 c-4 -5 -3 -12 0 -15 3 -4 6 -1 6 5 0 6 7 9 15 6 8 -4 15
-2 15 3 0 12 -29 13 -36 1z"/>
<path d="M1470 606 c0 -2 7 -6 15 -10 8 -3 15 -1 15 4 0 6 -7 10 -15 10 -8 0
-15 -2 -15 -4z"/>
<path d="M3635 594 c11 -7 25 -18 32 -24 7 -5 14 -6 17 -1 3 5 -1 12 -10 15
-8 3 -13 9 -11 13 3 5 -7 9 -21 10 -26 1 -26 1 -7 -13z"/>
<path d="M614 578 c-4 -7 -3 -10 1 -5 5 4 18 -1 29 -10 21 -18 21 -18 2 5 -22
26 -23 26 -32 10z"/>
<path d="M840 580 c-9 -6 -10 -10 -3 -10 6 0 15 5 18 10 8 12 4 12 -15 0z"/>
<path d="M1107 579 c7 -9 10 -19 6 -22 -3 -4 -1 -7 5 -7 17 0 15 16 -5 31 -16
12 -17 12 -6 -2z"/>
<path d="M1220 586 c0 -2 8 -10 18 -17 15 -13 16 -12 3 4 -13 16 -21 21 -21
13z"/>
<path d="M794 569 c-3 -6 -2 -15 3 -20 5 -5 9 -1 9 11 0 23 -2 24 -12 9z"/>
<path d="M1057 570 c7 -8 20 -15 29 -16 9 -1 13 1 9 4 -4 4 -10 7 -13 7 -4 0
-14 4 -22 9 -12 7 -13 6 -3 -4z"/>
<path d="M1260 573 c0 -19 21 -27 33 -13 9 10 9 11 -2 5 -8 -4 -17 -2 -22 6
-6 9 -9 10 -9 2z"/>
<path d="M675 560 c3 -5 8 -10 11 -10 2 0 4 5 4 10 0 6 -5 10 -11 10 -5 0 -7
-4 -4 -10z"/>
<path d="M915 561 c-3 -5 -2 -12 3 -15 5 -3 9 1 9 9 0 17 -3 19 -12 6z"/>
<path d="M946 562 c-2 -4 4 -8 14 -8 10 0 16 4 14 8 -3 4 -9 8 -14 8 -5 0 -11
-4 -14 -8z"/>
<path d="M1164 562 c4 -3 14 -7 22 -8 9 -1 13 0 10 4 -4 3 -14 7 -22 8 -9 1
-13 0 -10 -4z"/>
<path d="M1213 555 c0 -8 4 -12 9 -9 5 3 6 10 3 15 -9 13 -12 11 -12 -6z"/>
<path d="M1360 560 c-8 -5 -10 -10 -5 -10 6 0 17 5 25 10 8 5 11 10 5 10 -5 0
-17 -5 -25 -10z"/>
<path d="M1457 553 c3 -7 6 -13 8 -13 2 0 5 6 8 13 3 8 -1 14 -8 14 -7 0 -11
-6 -8 -14z"/>
<path d="M1435 540 c-3 -5 -1 -10 4 -10 6 0 11 5 11 10 0 6 -2 10 -4 10 -3 0
-8 -4 -11 -10z"/>
<path d="M1477 536 c-3 -8 0 -22 7 -32 10 -13 15 -14 21 -4 5 9 4 11 -3 6 -12
-7 -16 5 -13 32 2 16 -6 15 -12 -2z"/>
<path d="M1079 538 c-5 -18 -6 -38 -1 -34 7 8 12 36 6 36 -2 0 -4 -1 -5 -2z"/>
<path d="M1230 523 c0 -6 8 -17 18 -24 16 -13 16 -13 2 6 -8 11 -16 22 -17 24
-2 2 -3 0 -3 -6z"/>
<path d="M1390 521 c0 -6 4 -13 10 -16 6 -3 7 1 4 9 -7 18 -14 21 -14 7z"/>
<path d="M1454 512 c3 -5 0 -13 -6 -15 -9 -4 -10 -6 -1 -6 17 -1 25 16 12 25
-7 4 -9 3 -5 -4z"/>
<path d="M996 487 c3 -10 9 -15 12 -12 3 3 0 11 -7 18 -10 9 -11 8 -5 -6z"/>
<path d="M1210 496 c0 -2 8 -10 18 -17 15 -13 16 -12 3 4 -13 16 -21 21 -21
13z"/>
<path d="M1384 488 c3 -15 26 -23 26 -8 0 6 -4 9 -9 6 -5 -4 -12 -1 -14 4 -3
6 -4 5 -3 -2z"/>
<path d="M1146 478 c3 -5 10 -6 15 -3 13 9 11 12 -6 12 -8 0 -12 -4 -9 -9z"/>
<path d="M1296 478 c3 -5 10 -6 15 -3 13 9 11 12 -6 12 -8 0 -12 -4 -9 -9z"/>
<path d="M1470 480 c0 -5 5 -10 11 -10 5 0 7 5 4 10 -3 6 -8 10 -11 10 -2 0
-4 -4 -4 -10z"/>
<path d="M1456 438 c3 -5 10 -6 15 -3 13 9 11 12 -6 12 -8 0 -12 -4 -9 -9z"/>
<path d="M1550 437 c0 -8 6 -14 14 -14 8 0 12 6 9 14 -3 7 -9 13 -14 13 -5 0
-9 -6 -9 -13z"/>
<path d="M1495 420 c3 -5 8 -10 11 -10 2 0 4 5 4 10 0 6 -5 10 -11 10 -5 0 -7
-4 -4 -10z"/>
<path d="M3664 372 c-17 -11 -14 -60 4 -67 9 -3 13 -3 9 1 -4 4 -2 13 3 19 8
9 5 15 -7 20 -17 6 -17 7 1 21 20 14 11 20 -10 6z"/>
<path d="M1573 255 c0 -8 4 -12 9 -9 5 3 6 10 3 15 -9 13 -12 11 -12 -6z"/>
<path d="M3416 205 c4 -8 10 -12 15 -9 11 6 2 24 -11 24 -5 0 -7 -7 -4 -15z"/>
<path d="M1709 183 c-13 -16 -12 -17 4 -4 16 13 21 21 13 21 -2 0 -10 -8 -17
-17z"/>
<path d="M3510 189 c0 -5 5 -7 10 -4 6 3 10 8 10 11 0 2 -4 4 -10 4 -5 0 -10
-5 -10 -11z"/>
<path d="M1729 163 c-13 -16 -12 -17 4 -4 16 13 21 21 13 21 -2 0 -10 -8 -17
-17z"/>
<path d="M3486 158 c3 -5 10 -6 15 -3 13 9 11 12 -6 12 -8 0 -12 -4 -9 -9z"/>
<path d="M2010 136 c0 -2 8 -10 18 -17 15 -13 16 -12 3 4 -13 16 -21 21 -21
13z"/>
<path d="M2084 120 c0 -13 4 -16 10 -10 7 7 7 13 0 20 -6 6 -10 3 -10 -10z"/>
<path d="M2115 131 c7 -13 -26 -52 -38 -45 -7 4 -8 3 -4 -2 10 -11 57 -13 57
-2 0 4 -6 8 -12 8 -7 0 -5 5 5 11 9 5 22 7 28 3 8 -5 9 -2 1 11 -5 10 -17 20
-26 21 -9 1 -14 -1 -11 -5z"/>
<path d="M3064 103 c-1 -18 3 -33 8 -33 5 0 6 5 3 10 -3 6 -1 10 4 10 6 0 11
-6 11 -12 0 -9 4 -8 10 2 6 10 10 11 10 3 0 -7 5 -13 11 -13 8 0 8 5 -1 15 -7
8 -15 13 -19 11 -4 -3 -13 -1 -20 3 -9 6 -10 11 -2 15 6 4 11 3 11 -3 0 -5 8
-8 18 -7 9 2 23 -4 30 -13 9 -11 9 -7 -1 14 -11 22 -22 29 -43 30 -26 1 -29
-3 -30 -32z"/>
<path d="M1975 120 c3 -5 8 -10 11 -10 2 0 4 5 4 10 0 6 -5 10 -11 10 -5 0 -7
-4 -4 -10z"/>
<path d="M3203 118 c-9 -16 -16 -54 -7 -46 3 3 6 12 8 20 1 7 5 19 9 26 5 6 6
12 3 12 -3 0 -8 -6 -13 -12z"/>
<path d="M3334 116 c1 -8 5 -18 8 -22 4 -3 5 1 4 10 -1 8 -5 18 -8 22 -4 3 -5
-1 -4 -10z"/>
<path d="M2420 56 c0 -2 7 -7 16 -10 8 -3 12 -2 9 4 -6 10 -25 14 -25 6z"/>
<path d="M2460 51 c0 -6 4 -13 10 -16 6 -3 7 1 4 9 -7 18 -14 21 -14 7z"/>
<path d="M2500 45 c-21 -25 2 -36 29 -14 13 10 20 19 15 19 -4 0 -16 -7 -26
-17 -20 -18 -25 -4 -6 15 7 7 9 12 6 12 -3 0 -11 -7 -18 -15z"/>
<path d="M2581 28 c24 -34 36 -38 14 -5 -8 13 -13 26 -10 29 3 2 -2 5 -9 5
-12 0 -11 -7 5 -29z"/>
<path d="M2601 49 c0 -9 8 -24 19 -34 18 -17 20 -17 14 -2 -3 9 -10 17 -14 17
-5 0 -11 8 -13 18 -4 14 -5 14 -6 1z"/>
<path d="M2655 50 c-3 -6 1 -7 9 -4 18 7 21 14 7 14 -6 0 -13 -4 -16 -10z"/>
<path d="M2690 20 c30 -26 38 -26 15 0 -10 11 -23 20 -28 20 -6 0 0 -9 13 -20z"/>
<path d="M2426 17 c3 -10 9 -15 12 -12 3 3 0 11 -7 18 -10 9 -11 8 -5 -6z"/>
<path d="M2531 17 c-8 -10 -7 -14 4 -14 8 0 12 4 9 9 -8 13 11 9 25 -4 10 -11
11 -10 6 5 -8 20 -28 22 -44 4z"/>
<path d="M2640 25 c0 -2 10 -10 23 -16 20 -11 21 -11 8 4 -13 16 -31 23 -31
12z"/>
<path d="M2733 17 c-3 -5 -2 -11 1 -14 3 -4 6 -1 6 6 0 7 4 10 8 7 4 -2 14 -1
22 4 11 7 9 9 -8 7 -13 -1 -26 -5 -29 -10z"/>
<path d="M2795 20 c3 -5 8 -10 11 -10 2 0 4 5 4 10 0 6 -5 10 -11 10 -5 0 -7
-4 -4 -10z"/>
</g>
</svg>
